<?xml version="1.0" encoding="utf-8"?>
<!-- Generator: Adobe Illustrator 28.0.0, SVG Export Plug-In . SVG Version: 6.00 Build 0)  -->
<svg version="1.1" id="Layer_1" xmlns="http://www.w3.org/2000/svg" xmlns:xlink="http://www.w3.org/1999/xlink" x="0px" y="0px"
	 viewBox="0 0 141 153.5" style="enable-background:new 0 0 141 153.5;" xml:space="preserve">
<style type="text/css">
	.st0{fill:#FFFFFF;}
	.st1{fill:#B30000;}
</style>
<g>
	<g>
		<g>
			<path class="st0" d="M101.1,153.5H0V39.9C0,17.9,17.9,0,39.9,0H141v113.6C141,135.6,123.1,153.5,101.1,153.5z"/>
		</g>
		<g>
			<path class="st1" d="M101.1,149.5H4V39.9C4,20.1,20.1,4,39.9,4H137v109.6C137,133.4,120.9,149.5,101.1,149.5z M19,134.5h82.1
				c11.5,0,20.9-9.4,20.9-20.9V19H39.9C28.4,19,19,28.4,19,39.9V134.5z"/>
		</g>
	</g>
	<g>
		<g>
			<path d="M39.4,38.9h21.8c12.9,0,20.8,2.4,27.7,8.2c8,6.7,12.2,16.8,12.2,28.4c0,11.8-4.4,22.6-11.9,29.5
				c-6.2,5.6-15.2,8.6-26,8.6H39.4V38.9z M57.5,98.7h2.8c13.2,0,22.4-9.2,22.4-22.6c0-6.6-2.7-13.4-6.8-17.2
				c-3.6-3.2-9.4-5.4-14.9-5.4h-3.5V98.7z"/>
		</g>
	</g>
</g>
</svg>
