<?xml version="1.0" encoding="utf-8"?>
<!-- Generator: Adobe Illustrator 28.0.0, SVG Export Plug-In . SVG Version: 6.00 Build 0)  -->
<svg version="1.1" id="Layer_1" xmlns="http://www.w3.org/2000/svg" xmlns:xlink="http://www.w3.org/1999/xlink" x="0px" y="0px"
	 viewBox="0 0 735 273.7" style="enable-background:new 0 0 735 273.7;" xml:space="preserve">
<style type="text/css">
	.st0{fill:#FFFFFF;}
	.st1{fill:#B30000;}
</style>
<g>
	<g>
		<g>
			<path class="st0" d="M695.1,273.7H0V39.9C0,17.9,17.9,0,39.9,0H735v233.7C735,255.7,717.1,273.7,695.1,273.7z"/>
		</g>
		<g>
			<path d="M695.1,269.7H4V39.9C4,20.1,20.1,4,39.9,4H731v229.7C731,253.5,714.9,269.7,695.1,269.7z M19,254.7h676.1
				c11.5,0,20.9-9.4,20.9-20.9V19H39.9C28.4,19,19,28.4,19,39.9V254.7z"/>
		</g>
	</g>
	<g>
		<g>
			<path d="M39.4,38.9h21.8c12.9,0,20.8,2.4,27.7,8.2c8,6.7,12.2,16.8,12.2,28.4c0,11.8-4.4,22.6-11.9,29.5
				c-6.2,5.6-15.2,8.6-26,8.6H39.4V38.9z M57.5,98.7h2.8c13.2,0,22.4-9.2,22.4-22.6c0-6.6-2.7-13.4-6.8-17.2
				c-3.6-3.2-9.4-5.4-14.9-5.4h-3.5V98.7z"/>
		</g>
		<g>
			<path d="M156.7,68.8h24.6v14.7h-24.6v15.5h24.6v14.7h-42.8V38.9h42.8v14.7h-24.6V68.8z"/>
		</g>
		<g>
			<path d="M233.5,113.6h-18.7l22.5-74.7H257l21.4,74.7h-18.7L247,68L233.5,113.6z"/>
		</g>
		<g>
			<path d="M312.6,38.9h21.8c12.9,0,20.8,2.4,27.7,8.2c8,6.7,12.2,16.8,12.2,28.4c0,11.8-4.4,22.6-11.9,29.5
				c-6.2,5.6-15.2,8.6-26,8.6h-23.9V38.9z M330.8,98.7h2.8c13.2,0,22.4-9.2,22.4-22.6c0-6.6-2.7-13.4-6.8-17.2
				c-3.6-3.2-9.4-5.4-14.9-5.4h-3.5V98.7z"/>
		</g>
		<g>
			<path d="M454.9,98.9v14.7h-42.4V38.9h18.1v60H454.9z"/>
		</g>
		<g>
			<path d="M509.5,113.6h-18.1V38.9h18.1V113.6z"/>
		</g>
		<g>
			<path d="M569.1,113.6H551V38.9h18.1l27.2,42v-42h18.1v74.7h-18.1L569.1,71V113.6z"/>
		</g>
		<g>
			<path d="M670.7,68.8h24.6v14.7h-24.6v15.5h24.6v14.7h-42.8V38.9h42.8v14.7h-24.6V68.8z"/>
		</g>
	</g>
	<g>
		<g>
			<path d="M101.9,227.2c-9,7.6-16.9,10.6-28,10.6c-11.4,0-20.5-3.7-27.3-11.3c-6.4-7.1-10.1-17-10.1-27.3
				c0-12.1,4.9-23.4,13.2-30.6c6.6-5.6,14.7-8.4,24.8-8.4c6.3,0,12.4,1.3,17.7,3.7c3.8,1.8,6.2,3.5,10.6,7.6l-11.6,12.2
				c-5.3-4.6-10.3-6.7-16-6.7c-12,0-20.3,8.8-20.3,21.6c0,13.2,8.8,22.4,21.4,22.4c6.4,0,11-2,14.9-6.4L101.9,227.2z"/>
		</g>
		<g>
			<path d="M235.2,199.2c0,21.4-17.5,38.6-39.1,38.6c-22.3,0-40-17-40-38.5c0-10.9,4.4-20.9,12.5-28.7c7.2-6.7,16.9-10.4,27.9-10.4
				C218.7,160.2,235.2,176.9,235.2,199.2z M174.7,199.1c0,12.3,9.3,22,21.2,22c11.6,0,21.1-9.6,21.1-21.6c0-12.8-9-22.4-20.9-22.4
				C183.7,177,174.7,186.4,174.7,199.1z"/>
		</g>
		<g>
			<path d="M314.7,236.4h-18.1v-74.7h21.2l19.8,40.2l19.6-40.2h21.3v74.7h-18.1v-42.7l-22.7,45.7l-22.8-45.7V236.4z"/>
		</g>
		<g>
			<path d="M461.1,236.4H443v-74.7h18.1V236.4z"/>
		</g>
		<g>
			<path d="M587.9,227.2c-9,7.6-16.9,10.6-28,10.6c-11.4,0-20.5-3.7-27.3-11.3c-6.4-7.1-10.1-17-10.1-27.3
				c0-12.1,4.9-23.4,13.2-30.6c6.6-5.6,14.7-8.4,24.8-8.4c6.3,0,12.4,1.3,17.7,3.7c3.8,1.8,6.2,3.5,10.6,7.6l-11.6,12.2
				c-5.3-4.6-10.3-6.7-16-6.7c-12,0-20.3,8.8-20.3,21.6c0,13.2,8.8,22.4,21.4,22.4c6.4,0,11-2,14.9-6.4L587.9,227.2z"/>
		</g>
		<g>
			<path d="M661.3,213.7c-0.1,0.4-0.1,1-0.1,1.2c0,3.7,4,6.8,8.8,6.8c4.4,0,7.7-2.6,7.7-5.9c0-3.5-2-5-10.8-8.2
				c-16.4-5.8-22.7-12.7-22.7-24.1c0-14,10.3-23.4,25.9-23.4c10.1,0,18.4,4.3,22.7,11.5c2.1,3.5,3.1,6.7,3.9,12h-18.5
				c-0.6-5.2-3.1-7.5-8.3-7.5c-4.5,0-7.4,2.4-7.4,5.9c0,2.2,1.1,4,3.5,5.4c1.3,0.9,2.8,1.6,8.5,3.7c8.5,3.2,12.5,5.4,15.9,8.4
				c4.1,3.8,6.3,9,6.3,15c0,13.9-10.8,23.2-26.8,23.2c-16.4,0-26.5-9.3-26.5-24.1H661.3z"/>
		</g>
	</g>
	<g>
		<rect x="38.1" y="129.4" class="st1" width="657.3" height="14.7"/>
	</g>
</g>
</svg>
