<?xml version="1.0" encoding="UTF-8" standalone="no"?>
<!DOCTYPE svg PUBLIC "-//W3C//DTD SVG 1.1//EN" "http://www.w3.org/Graphics/SVG/1.1/DTD/svg11.dtd">
<svg width="100%" height="100%" viewBox="0 0 900 768" version="1.1" xmlns="http://www.w3.org/2000/svg" xmlns:xlink="http://www.w3.org/1999/xlink" xml:space="preserve" xmlns:serif="http://www.serif.com/" style="fill-rule:evenodd;clip-rule:evenodd;stroke-linejoin:round;stroke-miterlimit:2;">
    <g id="Artboard1" transform="matrix(0.8,0,0,0.315271,0,0)">
        <rect x="0" y="0" width="1125" height="2436" style="fill:none;"/>
        <clipPath id="_clip1">
            <rect x="0" y="0" width="1125" height="2436"/>
        </clipPath>
        <g clip-path="url(#_clip1)">
            <g transform="matrix(1,0,0,1,136.487,-148.359)">
                <g transform="matrix(1.20501,0,0,3.05773,61.1851,-442.429)">
                    <path d="M10.768,217.033L10.768,201.351L6.893,193.602L21.456,193.602C25.745,193.602 32.036,193.743 40.328,194.029C48.348,194.306 54.432,194.445 58.581,194.445L68.284,194.445L68.706,194.868C72.715,194.877 78.725,195.018 86.735,195.295C94.751,195.571 100.695,195.711 104.565,195.711L106.207,195.711L107.743,196.291C125.901,203.143 136.524,216.16 139.605,235.333C148.116,287.813 151.684,350.221 150.267,422.557C149.935,444.369 141.321,459.444 125.068,468.174C120.667,479.082 112.913,487.233 101.754,492.598L77.284,504.221L77.284,550.367L56.248,550.367L56.248,573.633L-10.268,573.633L-10.268,224.617L-14.142,216.868L0.42,216.868C3.092,216.868 6.542,216.923 10.768,217.033ZM456.748,483.43L456.748,217.29L477.784,217.29L477.784,194.024L608.846,194.024L608.846,260.961L587.811,260.961L587.811,284.227L544.721,284.227C544.721,284.227 544.721,410.958 544.721,410.958L581.424,408.005L581.424,470.36C581.424,470.36 560.389,472.052 560.389,472.052L560.389,483.008L608.846,483.008L608.846,549.945L587.811,549.945L587.811,573.211L515.107,573.211L514.686,573.633L456.748,573.633L456.748,550.367L440.998,550.367L440.998,573.633L302.342,573.633L302.342,550.367L298.69,550.367L301.794,573.633L245.665,573.633C245.665,573.633 242.38,548.995 242.38,548.995C242.38,548.995 207.333,551.892 207.333,551.892L205.159,573.633L138.69,573.633L169.348,217.29C169.348,217.29 188.383,217.29 188.383,217.29L190.384,194.024L275.288,194.024L302.342,396.802L302.342,217.29L323.378,217.29L323.378,194.024L390.315,194.024L390.315,203.024C390.315,203.024 390.315,434.535 390.315,483.43L456.748,483.43ZM-162.354,604.665L-162.354,602.971L-143.005,603.871L-143.005,581.399L-141.318,581.399L-141.318,579.705L-113.765,580.986C-107.715,581.261 -101.665,581.399 -95.615,581.399L-85.275,581.399L-85.062,581.409C-73.392,581.965 -61.722,582.242 -50.052,582.242L-48.289,582.242L-46.656,582.908C-28.49,590.309 -17.893,603.268 -14.697,621.65L-14.697,602.977L-13.01,602.977L-13.01,601.695L-3.582,602.144C-0.318,602.299 2.988,602.433 6.339,602.544L6.339,579.711L8.026,579.711L8.026,578.429L17.454,578.878C29.13,579.434 41.363,579.711 54.151,579.711L63.854,579.711L64.286,580.143C75.956,580.699 87.765,580.977 99.714,580.977L101.327,580.977L102.839,581.537C121.303,588.375 132.084,601.53 135.174,621.008C143.682,671.512 147.255,733.783 145.837,807.824C145.511,828.346 137.269,843.3 121.428,852.871L140.29,892.461L165.341,601.29C165.341,601.29 184.375,601.29 184.375,601.29L186.376,578.024L271.28,578.024L297.912,777.64L297.912,643.196C297.912,632.261 301.753,622.971 309.408,615.316C312.971,611.752 316.84,609.009 320.991,607.055C322.858,601.503 325.998,596.496 330.443,592.05C338.42,584.074 347.867,580.133 358.745,580.133L420.339,580.133C431.259,580.133 440.559,584.094 448.205,592.035C454.024,597.635 457.708,604.109 459.271,611.45C462.498,608.414 466.041,606.038 469.89,604.31C471.759,598.625 474.911,593.551 479.365,589.097C486.991,581.471 496.41,577.602 507.667,577.602L569.26,577.602C580.181,577.602 589.481,581.563 597.127,589.504C600.84,593.077 603.684,597.006 605.662,601.29L616.792,601.29L616.792,578.024L674.729,578.024C699.422,578.024 717.641,579.749 729.407,582.981C754.789,589.846 767.556,604.32 768.929,625.247L769.557,634.836L768.526,634.836L768.526,934.367L747.49,934.367L747.49,957.633L680.553,957.633L680.553,934.367L662.693,934.367L662.693,957.633L595.756,957.633L595.756,925.041C592.715,927.825 589.424,930.028 585.891,931.665C583.959,937.255 580.716,942.37 576.104,946.982C568.449,954.636 559.16,958.477 548.225,958.477L486.631,958.477C476.246,958.477 467.427,955.184 460.135,948.688L460.135,953.352L439.1,953.352L439.1,976.618L375.115,976.618L375.115,961.008L337.709,961.008C326.884,961.008 317.495,957.237 309.406,949.515L309.261,949.363C304.941,944.838 301.87,939.835 300.019,934.367C300.019,934.367 294.682,934.367 294.682,934.367L297.786,957.633L241.657,957.633C241.657,957.633 238.372,932.995 238.372,932.995C238.372,932.995 203.325,935.892 203.325,935.892L201.151,957.633L136.105,957.633L76.782,989.492C76.782,989.492 54.071,936.055 54.071,936.055L51.818,936.055L51.818,959.321L-14.697,959.321L-14.697,899.71C-18.57,904.58 -23.478,908.721 -29.406,912.142C-33.785,922.433 -41.303,930.518 -52.071,936.316L-52.087,936.325C-69.759,945.749 -86.559,952.197 -102.464,955.732C-115.579,958.646 -133.062,960.294 -154.921,960.586L-164.041,960.707L-164.041,604.665L-162.354,604.665ZM446.834,795.289L446.834,664.789L439.1,664.789L439.1,688.055L382.932,688.055L382.932,818.555L396.151,818.555L396.151,795.289L446.834,795.289ZM135.377,949.567L135.693,945.886L134.045,946.771L135.377,949.567Z" style="fill:white;"/>
                </g>
                <g transform="matrix(1.20501,0,0,3.05773,61.1851,-442.429)">
                    <path d="M-1.268,226.711L0.842,226.711L0.42,225.868C4.639,225.868 10.826,226.008 18.982,226.29C27.139,226.571 33.326,226.711 37.545,226.711L47.248,226.711L47.248,227.133C51.186,227.133 57.232,227.274 65.389,227.555C73.545,227.836 79.592,227.977 83.529,227.977C98.436,233.602 107.154,244.29 109.686,260.04C118.123,312.071 121.639,373.946 120.232,445.665C119.951,464.508 112.498,477.446 97.873,484.477L47.248,508.524L47.248,564.633L-1.268,564.633L-1.268,226.711ZM47.248,284.93L47.248,443.555L62.857,436.383C69.889,433.29 73.545,427.946 73.826,420.352C74.67,402.352 74.811,381.68 74.248,358.336C73.404,338.649 70.451,317.977 65.389,296.321C63.701,289.571 59.482,285.774 52.732,284.93L47.248,284.93Z" style="fill-rule:nonzero;"/>
                    <path d="M177.607,226.29L246.373,226.29L291.514,564.633L253.545,564.633L250.17,539.321L199.123,543.54L197.014,564.633L148.498,564.633L177.607,226.29ZM244.264,495.446L219.373,308.555L202.92,499.243L244.264,495.446Z" style="fill-rule:nonzero;"/>
                    <path d="M311.342,226.29L360.279,226.29L360.279,515.696L431.998,515.696L431.998,564.633L311.342,564.633L311.342,226.29Z" style="fill-rule:nonzero;"/>
                    <path d="M514.686,488.274L514.686,515.274L578.811,515.274L578.811,564.211L514.686,564.211L514.686,564.633L465.748,564.633L465.748,226.29L578.811,226.29L578.811,275.227L514.686,275.227L514.686,443.977L551.389,441.024L551.389,485.321L514.686,488.274Z" style="fill-rule:nonzero;"/>
                    <path d="M-155.041,613.665L-153.354,613.665L-153.354,612.399L-135.213,613.243C-129.025,613.524 -122.838,613.665 -116.65,613.665L-106.525,613.665C-94.713,614.227 -82.9,614.508 -71.088,614.508C-55.9,620.696 -47.041,631.524 -44.51,646.993C-35.51,702.118 -31.994,782.977 -33.963,889.571C-34.244,907.571 -41.697,920.508 -56.322,928.383C-73.197,937.383 -89.229,943.571 -104.416,946.946C-117.072,949.758 -133.947,951.305 -155.041,951.586L-155.041,613.665ZM-106.525,655.852L-106.525,903.071L-91.338,895.899C-84.588,892.805 -81.072,887.321 -80.791,879.446C-80.51,871.29 -80.088,856.524 -79.525,835.149C-79.244,792.961 -80.369,752.04 -82.9,712.383C-84.307,694.102 -86.275,679.196 -88.807,667.665C-90.494,660.633 -94.854,656.696 -101.885,655.852L-106.525,655.852Z" style="fill-rule:nonzero;"/>
                    <path d="M-5.697,611.977L-4.01,611.977L-4.01,611.133C7.803,611.696 20.178,611.977 33.115,611.977L42.818,611.977L42.818,612.399C54.631,612.961 66.584,613.243 78.678,613.243C93.865,618.868 102.725,629.696 105.256,645.727C113.693,695.79 117.209,757.524 115.803,830.93C115.521,848.93 108.068,861.868 93.443,869.743L88.381,871.852L126.771,952.43L81.209,976.899L45.35,892.524L42.818,893.79L42.818,950.321L-5.697,950.321L-5.697,611.977ZM42.818,670.196L42.818,828.821L58.006,822.071C65.037,818.133 68.693,812.649 68.975,805.618C70.1,781.711 70.24,761.04 69.396,743.602C68.553,725.321 65.6,704.649 60.537,681.586C59.131,674.836 54.912,671.04 47.881,670.196L42.818,670.196Z" style="fill-rule:nonzero;"/>
                    <path d="M173.6,610.29L242.365,610.29L287.506,948.633L249.537,948.633L246.162,923.321L195.115,927.54L193.006,948.633L144.49,948.633L173.6,610.29ZM240.256,879.446L215.365,692.555L198.912,883.243L240.256,879.446Z" style="fill-rule:nonzero;"/>
                    <path d="M337.709,612.399L399.303,612.399C407.74,612.399 414.912,615.493 420.818,621.68C427.006,627.586 430.1,634.758 430.1,643.196L430.1,679.055L384.115,679.055L384.115,647.836L352.896,647.836L352.896,916.149L384.115,916.149L384.115,827.555L430.1,827.555L430.1,967.618L384.115,967.618L384.115,952.008L337.709,952.008C329.271,952.008 321.959,949.055 315.771,943.149C309.865,936.961 306.912,929.649 306.912,921.211L306.912,643.196C306.912,634.758 309.865,627.586 315.771,621.68C321.959,615.493 329.271,612.399 337.709,612.399Z" style="fill-rule:nonzero;"/>
                    <path d="M486.631,609.868L548.225,609.868C556.662,609.868 563.834,612.961 569.74,619.149C575.928,625.055 579.021,632.227 579.021,640.665L579.021,918.68C579.021,927.118 575.928,934.43 569.74,940.618C563.834,946.524 556.662,949.477 548.225,949.477L486.631,949.477C477.912,949.477 470.6,946.524 464.693,940.618C458.787,934.711 455.834,927.399 455.834,918.68L455.834,640.665C455.834,631.946 458.787,624.633 464.693,618.727C470.6,612.821 477.912,609.868 486.631,609.868ZM501.818,645.305L501.818,913.618L533.037,913.618L533.037,645.305L501.818,645.305Z" style="fill-rule:nonzero;"/>
                    <path d="M604.756,610.29L653.693,610.29C677.318,610.29 694.756,611.836 706.006,614.93C726.818,620.555 737.787,631.946 738.912,649.102L738.49,649.102L738.49,948.633L689.553,948.633L689.553,657.54C683.928,651.071 675.35,647.836 663.818,647.836C660.162,647.836 656.787,648.399 653.693,649.524L653.693,948.633L604.756,948.633L604.756,610.29Z" style="fill-rule:nonzero;"/>
                </g>
                <g transform="matrix(1.20501,0,0,3.05773,86.5336,-513.57)">
                    <path d="M-1.268,226.711L0.842,226.711L0.42,225.868C4.639,225.868 10.826,226.008 18.982,226.29C27.139,226.571 33.326,226.711 37.545,226.711L47.248,226.711L47.248,227.133C51.186,227.133 57.232,227.274 65.389,227.555C73.545,227.836 79.592,227.977 83.529,227.977C98.436,233.602 107.154,244.29 109.686,260.04C118.123,312.071 121.639,373.946 120.232,445.665C119.951,464.508 112.498,477.446 97.873,484.477L47.248,508.524L47.248,564.633L-1.268,564.633L-1.268,226.711ZM47.248,284.93L47.248,443.555L62.857,436.383C69.889,433.29 73.545,427.946 73.826,420.352C74.67,402.352 74.811,381.68 74.248,358.336C73.404,338.649 70.451,317.977 65.389,296.321C63.701,289.571 59.482,285.774 52.732,284.93L47.248,284.93Z" style="fill:rgb(242,13,13);fill-rule:nonzero;"/>
                    <path d="M177.607,226.29L246.373,226.29L291.514,564.633L253.545,564.633L250.17,539.321L199.123,543.54L197.014,564.633L148.498,564.633L177.607,226.29ZM244.264,495.446L219.373,308.555L202.92,499.243L244.264,495.446Z" style="fill:rgb(242,13,13);fill-rule:nonzero;"/>
                    <path d="M311.342,226.29L360.279,226.29L360.279,515.696L431.998,515.696L431.998,564.633L311.342,564.633L311.342,226.29Z" style="fill:rgb(242,13,13);fill-rule:nonzero;"/>
                    <path d="M514.686,488.274L514.686,515.274L578.811,515.274L578.811,564.211L514.686,564.211L514.686,564.633L465.748,564.633L465.748,226.29L578.811,226.29L578.811,275.227L514.686,275.227L514.686,443.977L551.389,441.024L551.389,485.321L514.686,488.274Z" style="fill:rgb(242,13,13);fill-rule:nonzero;"/>
                    <path d="M-155.041,613.665L-153.354,613.665L-153.354,612.399L-135.213,613.243C-129.025,613.524 -122.838,613.665 -116.65,613.665L-106.525,613.665C-94.713,614.227 -82.9,614.508 -71.088,614.508C-55.9,620.696 -47.041,631.524 -44.51,646.993C-35.51,702.118 -31.994,782.977 -33.963,889.571C-34.244,907.571 -41.697,920.508 -56.322,928.383C-73.197,937.383 -89.229,943.571 -104.416,946.946C-117.072,949.758 -133.947,951.305 -155.041,951.586L-155.041,613.665ZM-106.525,655.852L-106.525,903.071L-91.338,895.899C-84.588,892.805 -81.072,887.321 -80.791,879.446C-80.51,871.29 -80.088,856.524 -79.525,835.149C-79.244,792.961 -80.369,752.04 -82.9,712.383C-84.307,694.102 -86.275,679.196 -88.807,667.665C-90.494,660.633 -94.854,656.696 -101.885,655.852L-106.525,655.852Z" style="fill:rgb(242,13,13);fill-rule:nonzero;"/>
                    <path d="M-5.697,611.977L-4.01,611.977L-4.01,611.133C7.803,611.696 20.178,611.977 33.115,611.977L42.818,611.977L42.818,612.399C54.631,612.961 66.584,613.243 78.678,613.243C93.865,618.868 102.725,629.696 105.256,645.727C113.693,695.79 117.209,757.524 115.803,830.93C115.521,848.93 108.068,861.868 93.443,869.743L88.381,871.852L126.771,952.43L81.209,976.899L45.35,892.524L42.818,893.79L42.818,950.321L-5.697,950.321L-5.697,611.977ZM42.818,670.196L42.818,828.821L58.006,822.071C65.037,818.133 68.693,812.649 68.975,805.618C70.1,781.711 70.24,761.04 69.396,743.602C68.553,725.321 65.6,704.649 60.537,681.586C59.131,674.836 54.912,671.04 47.881,670.196L42.818,670.196Z" style="fill:rgb(242,13,13);fill-rule:nonzero;"/>
                    <path d="M173.6,610.29L242.365,610.29L287.506,948.633L249.537,948.633L246.162,923.321L195.115,927.54L193.006,948.633L144.49,948.633L173.6,610.29ZM240.256,879.446L215.365,692.555L198.912,883.243L240.256,879.446Z" style="fill:rgb(242,13,13);fill-rule:nonzero;"/>
                    <path d="M337.709,612.399L399.303,612.399C407.74,612.399 414.912,615.493 420.818,621.68C427.006,627.586 430.1,634.758 430.1,643.196L430.1,679.055L384.115,679.055L384.115,647.836L352.896,647.836L352.896,916.149L384.115,916.149L384.115,827.555L430.1,827.555L430.1,967.618L384.115,967.618L384.115,952.008L337.709,952.008C329.271,952.008 321.959,949.055 315.771,943.149C309.865,936.961 306.912,929.649 306.912,921.211L306.912,643.196C306.912,634.758 309.865,627.586 315.771,621.68C321.959,615.493 329.271,612.399 337.709,612.399Z" style="fill:rgb(242,13,13);fill-rule:nonzero;"/>
                    <path d="M486.631,609.868L548.225,609.868C556.662,609.868 563.834,612.961 569.74,619.149C575.928,625.055 579.021,632.227 579.021,640.665L579.021,918.68C579.021,927.118 575.928,934.43 569.74,940.618C563.834,946.524 556.662,949.477 548.225,949.477L486.631,949.477C477.912,949.477 470.6,946.524 464.693,940.618C458.787,934.711 455.834,927.399 455.834,918.68L455.834,640.665C455.834,631.946 458.787,624.633 464.693,618.727C470.6,612.821 477.912,609.868 486.631,609.868ZM501.818,645.305L501.818,913.618L533.037,913.618L533.037,645.305L501.818,645.305Z" style="fill:rgb(242,13,13);fill-rule:nonzero;"/>
                    <path d="M604.756,610.29L653.693,610.29C677.318,610.29 694.756,611.836 706.006,614.93C726.818,620.555 737.787,631.946 738.912,649.102L738.49,649.102L738.49,948.633L689.553,948.633L689.553,657.54C683.928,651.071 675.35,647.836 663.818,647.836C660.162,647.836 656.787,648.399 653.693,649.524L653.693,948.633L604.756,948.633L604.756,610.29Z" style="fill:rgb(242,13,13);fill-rule:nonzero;"/>
                </g>
            </g>
            <g id="new">
            </g>
        </g>
    </g>
</svg>
